<svg width="597" height="119" viewBox="0 0 597 119" fill="none" xmlns="http://www.w3.org/2000/svg">
<path d="M15.0414 6.41599L15.6814 2.96H51.3935C56.9401 2.96 61.5055 4.02666 65.0895 6.16C68.6735 8.29333 71.2335 11.1947 72.7695 14.864C74.3055 18.448 74.6468 22.544 73.7934 27.152L73.1535 30.864C71.9588 37.8613 68.9295 43.3227 64.0655 47.248C59.2868 51.1733 52.5454 53.136 43.8414 53.136H27.8414L23.2334 79.632C22.7214 82.6187 22.5081 84.4107 22.5934 85.008C22.7641 85.52 23.5321 85.8187 24.8974 85.904L34.3694 86.672L33.7295 90H0.321448L0.961448 86.672L8.12945 85.904C9.58012 85.7333 10.4761 85.392 10.8174 84.88C11.1588 84.2827 11.5854 82.5333 12.0974 79.632L23.7454 13.328C24.2574 10.3413 24.4281 8.592 24.2575 8.07999C24.0868 7.568 23.3614 7.22666 22.0814 7.056L15.0414 6.41599ZM51.2654 7.056H35.9054L28.6094 49.04H43.8414C53.4841 49.04 59.2441 43.4933 61.1215 32.4L62.4015 25.104C64.3641 13.072 60.6521 7.056 51.2654 7.056ZM125.701 90.59C122.791 90.59 120.47 89.7247 118.739 87.994C117.087 86.1847 116.183 83.4707 116.025 79.852C113.351 84.0213 110.479 86.9713 107.411 88.702C104.343 90.354 101.197 91.18 97.9714 91.18C93.3301 91.18 89.5541 89.764 86.6434 86.932C83.7328 84.0213 81.7661 80.1667 80.7434 75.368C79.7208 70.5693 79.7601 65.22 80.8614 59.32L81.3334 56.724C82.3561 51.2173 84.1654 46.4973 86.7614 42.564C89.4361 38.6307 92.6614 35.6413 96.4374 33.596C100.213 31.472 104.225 30.41 108.473 30.41C111.777 30.41 114.649 31.0787 117.087 32.416C119.605 33.6747 121.65 35.484 123.223 37.844C124.325 36.9787 125.387 35.9953 126.409 34.894C127.432 33.7927 128.455 32.6913 129.477 31.59H133.607L126.409 72.3C125.387 78.1213 124.993 81.976 125.229 83.864C125.465 85.752 126.213 86.696 127.471 86.696C128.651 86.696 129.91 86.0273 131.247 84.69C132.663 83.274 133.922 80.914 135.023 77.61L139.153 80.206C137.423 83.8247 135.417 86.46 133.135 88.112C130.854 89.764 128.376 90.59 125.701 90.59ZM90.8914 62.388C89.5541 70.2547 89.7114 76.3513 91.3634 80.678C93.0941 85.0047 95.8081 87.168 99.5055 87.168C101 87.168 102.691 86.7747 104.579 85.988C106.467 85.1227 108.434 83.5493 110.479 81.268C112.603 78.908 114.767 75.5253 116.969 71.12L121.807 43.272C120.391 40.204 118.621 37.962 116.497 36.546C114.452 35.13 112.013 34.422 109.181 34.422C104.383 34.422 100.567 36.31 97.7355 40.086C94.9821 43.862 93.0548 49.054 91.9534 55.662L90.8914 62.388ZM174.56 91.18C171.335 91.18 168.503 90.59 166.064 89.41C163.625 88.23 161.58 86.5387 159.928 84.336L154.5 115.134H144.824L157.804 41.148C158.276 38.4733 158.433 36.9 158.276 36.428C158.119 35.8773 157.45 35.5233 156.27 35.366L149.898 34.658L150.488 31.59H168.896L167.008 42.092C169.761 37.7653 172.672 34.7367 175.74 33.006C178.808 31.2753 181.955 30.41 185.18 30.41C189.9 30.41 193.715 31.8653 196.626 34.776C199.537 37.608 201.503 41.4233 202.526 46.222C203.549 51.0207 203.509 56.37 202.408 62.27L201.936 64.866C200.992 70.3727 199.143 75.0927 196.39 79.026C193.715 82.9593 190.49 85.988 186.714 88.112C182.938 90.1573 178.887 91.18 174.56 91.18ZM183.528 34.54C182.033 34.54 180.303 35.012 178.336 35.956C176.448 36.8213 174.403 38.5127 172.2 41.03C170.076 43.4687 167.873 47.0873 165.592 51.886L160.99 78.436C162.406 81.504 164.176 83.746 166.3 85.162C168.424 86.4993 170.941 87.168 173.852 87.168C178.729 87.168 182.545 85.3193 185.298 81.622C188.13 77.846 190.097 72.654 191.198 66.046L192.378 59.32C193.715 51.3747 193.519 45.278 191.788 41.03C190.057 36.7033 187.304 34.54 183.528 34.54ZM261.307 78.436C258.554 83.2347 255.093 86.578 250.923 88.466C246.754 90.2753 242.624 91.18 238.533 91.18C233.105 91.18 228.582 89.882 224.963 87.286C221.423 84.69 218.945 81.0713 217.529 76.43C216.192 71.71 216.074 66.2427 217.175 60.028L217.647 57.432C218.591 52.0827 220.401 47.402 223.075 43.39C225.829 39.2993 229.251 36.1133 233.341 33.832C237.511 31.5507 242.191 30.41 247.383 30.41C251.395 30.41 254.778 31.0787 257.531 32.416C260.285 33.7533 262.369 35.5233 263.785 37.726C265.201 39.85 265.909 42.1313 265.909 44.57C265.909 48.5033 264.493 51.886 261.661 54.718C258.908 57.55 255.053 59.792 250.097 61.444C245.22 63.0173 239.556 64.04 233.105 64.512L226.969 64.984C225.947 72.4573 226.458 78.082 228.503 81.858C230.627 85.5553 234.089 87.404 238.887 87.404C240.775 87.404 242.821 87.05 245.023 86.342C247.226 85.634 249.311 84.4147 251.277 82.684C253.244 80.9533 254.739 78.554 255.761 75.486L261.307 78.436ZM228.385 55.898L227.559 61.208L232.987 60.854C239.438 60.4607 244.394 59.3987 247.855 57.668C251.317 55.9373 253.716 53.8527 255.053 51.414C256.391 48.9753 257.059 46.5367 257.059 44.098C257.059 41.03 256.155 38.6307 254.345 36.9C252.615 35.0907 250.176 34.186 247.029 34.186C242.86 34.186 239.045 35.9167 235.583 39.378C232.122 42.7607 229.723 48.2673 228.385 55.898ZM308.384 36.9C307.047 36.9 305.552 37.3327 303.9 38.198C302.327 39.0633 300.635 40.6367 298.826 42.918C297.017 45.1993 295.05 48.464 292.926 52.712L286.318 90H276.642L285.256 41.148C285.728 38.4733 285.885 36.9 285.728 36.428C285.571 35.8773 284.902 35.5233 283.722 35.366L277.232 34.776L277.822 31.59H296.348L294.224 43.862C297.292 38.9847 300.439 35.5233 303.664 33.478C306.889 31.4327 310.036 30.41 313.104 30.41C315.621 30.41 317.863 31.118 319.83 32.534C321.797 33.95 323.173 36.2707 323.96 39.496L315.7 45.042C315.071 42.0527 314.127 39.968 312.868 38.788C311.688 37.5293 310.193 36.9 308.384 36.9ZM338.181 0.399994H349.061V90H338.181V0.399994ZM384.261 0.399994H397.701L358.917 42.384L399.621 90H386.181L345.733 42.64L384.261 0.399994ZM428.825 91.28C423.363 91.28 418.499 90 414.233 87.44C410.051 84.7947 406.766 81.168 404.377 76.56C402.073 71.952 400.921 66.6187 400.921 60.56C400.921 54.416 402.115 49.04 404.505 44.432C406.979 39.824 410.393 36.24 414.745 33.68C419.182 31.12 424.302 29.84 430.105 29.84C435.907 29.84 440.857 31.0773 444.953 33.552C449.134 35.9413 452.334 39.3973 454.553 43.92C456.771 48.4427 457.881 53.8187 457.881 60.048C457.881 60.6453 457.838 61.2853 457.753 61.968C457.753 62.5653 457.753 62.9493 457.753 63.12H407.449V54.416H449.689L445.593 60.304C445.849 59.8773 446.105 59.2373 446.361 58.384C446.617 57.4453 446.745 56.6773 446.745 56.08C446.745 52.5813 446.019 49.552 444.569 46.992C443.203 44.432 441.283 42.4267 438.809 40.976C436.334 39.5253 433.433 38.8 430.105 38.8C426.179 38.8 422.809 39.6533 419.993 41.36C417.262 42.9813 415.129 45.3707 413.593 48.528C412.142 51.6 411.374 55.3973 411.289 59.92C411.289 64.528 412.014 68.4533 413.465 71.696C414.915 74.9387 417.049 77.4133 419.865 79.12C422.681 80.8267 426.094 81.68 430.105 81.68C434.115 81.68 437.657 80.8267 440.729 79.12C443.801 77.328 446.403 74.64 448.537 71.056L456.857 76.304C453.785 81.2533 449.902 85.008 445.209 87.568C440.601 90.0427 435.139 91.28 428.825 91.28ZM494.7 91.28C489.238 91.28 484.374 90 480.108 87.44C475.926 84.7947 472.641 81.168 470.252 76.56C467.948 71.952 466.796 66.6187 466.796 60.56C466.796 54.416 467.99 49.04 470.38 44.432C472.854 39.824 476.268 36.24 480.62 33.68C485.057 31.12 490.177 29.84 495.98 29.84C501.782 29.84 506.732 31.0773 510.828 33.552C515.009 35.9413 518.209 39.3973 520.428 43.92C522.646 48.4427 523.756 53.8187 523.756 60.048C523.756 60.6453 523.713 61.2853 523.628 61.968C523.628 62.5653 523.628 62.9493 523.628 63.12H473.324V54.416H515.564L511.468 60.304C511.724 59.8773 511.98 59.2373 512.236 58.384C512.492 57.4453 512.62 56.6773 512.62 56.08C512.62 52.5813 511.894 49.552 510.444 46.992C509.078 44.432 507.158 42.4267 504.684 40.976C502.209 39.5253 499.308 38.8 495.98 38.8C492.054 38.8 488.684 39.6533 485.868 41.36C483.137 42.9813 481.004 45.3707 479.468 48.528C478.017 51.6 477.249 55.3973 477.164 59.92C477.164 64.528 477.889 68.4533 479.34 71.696C480.79 74.9387 482.924 77.4133 485.74 79.12C488.556 80.8267 491.969 81.68 495.98 81.68C499.99 81.68 503.532 80.8267 506.604 79.12C509.676 77.328 512.278 74.64 514.412 71.056L522.732 76.304C519.66 81.2533 515.777 85.008 511.084 87.568C506.476 90.0427 501.014 91.28 494.7 91.28ZM547.391 118.16H537.151V31.12H547.391V118.16ZM596.671 60.56C596.671 66.8747 595.348 72.336 592.703 76.944C590.057 81.552 586.516 85.0933 582.079 87.568C577.727 90.0427 572.863 91.28 567.487 91.28C562.623 91.28 558.313 90.0427 554.559 87.568C550.889 85.0933 547.988 81.552 545.855 76.944C543.807 72.336 542.783 66.8747 542.783 60.56C542.783 54.16 543.807 48.6987 545.855 44.176C547.988 39.568 550.889 36.0267 554.559 33.552C558.313 31.0773 562.623 29.84 567.487 29.84C572.863 29.84 577.727 31.0773 582.079 33.552C586.516 36.0267 590.057 39.568 592.703 44.176C595.348 48.6987 596.671 54.16 596.671 60.56ZM586.303 60.56C586.303 56.0373 585.364 52.1973 583.487 49.04C581.695 45.8827 579.263 43.4933 576.191 41.872C573.204 40.2507 569.876 39.44 566.207 39.44C563.22 39.44 560.276 40.2507 557.375 41.872C554.473 43.4933 552.084 45.8827 550.207 49.04C548.329 52.1973 547.391 56.0373 547.391 60.56C547.391 65.0827 548.329 68.9227 550.207 72.08C552.084 75.2373 554.473 77.6267 557.375 79.248C560.276 80.8693 563.22 81.68 566.207 81.68C569.876 81.68 573.204 80.8693 576.191 79.248C579.263 77.6267 581.695 75.2373 583.487 72.08C585.364 68.9227 586.303 65.0827 586.303 60.56Z" fill="#8DB580"/>
<ellipse cx="430" cy="60" rx="10" ry="12" fill="#8DB580"/>
<ellipse cx="496" cy="60" rx="10" ry="12" fill="#8DB580"/>
</svg>
